<svg xmlns="http://www.w3.org/2000/svg" xmlns:xlink="http://www.w3.org/1999/xlink" width="794" zoomAndPan="magnify" viewBox="0 0 594.95996 842.24997" height="1123" preserveAspectRatio="xMidYMid meet" version="1.0"><defs><g/><clipPath id="19062698c5"><path d="M 0.246094 0 L 594.675781 0 L 594.675781 841.5 L 0.246094 841.5 Z M 0.246094 0 " clip-rule="nonzero"/></clipPath><clipPath id="030fde791c"><rect x="0" width="197" y="0" height="306"/></clipPath><clipPath id="46b2865ae5"><rect x="0" width="415" y="0" height="62"/></clipPath><clipPath id="5c84612f68"><rect x="0" width="207" y="0" height="296"/></clipPath></defs><g clip-path="url(#19062698c5)"><path fill="#ffffff" d="M 0.246094 0 L 595.214844 0 L 595.214844 841.5 L 0.246094 841.5 Z M 0.246094 0 " fill-opacity="1" fill-rule="nonzero"/><path fill="#ffffff" d="M 0.246094 0 L 595.214844 0 L 595.214844 841.5 L 0.246094 841.5 Z M 0.246094 0 " fill-opacity="1" fill-rule="nonzero"/></g><g transform="matrix(1, 0, 0, 1, 151, 150)"><g clip-path="url(#030fde791c)"><g fill="#1a1a1a" fill-opacity="1"><g transform="translate(1.008538, 228.189425)"><g><path d="M 158.59375 0 L 124.203125 -82.5 C 111.210938 -81.28125 100.503906 -78.640625 92.078125 -74.578125 C 83.660156 -70.515625 76.863281 -65.59375 71.6875 -59.8125 C 66.507812 -54.03125 62.347656 -47.992188 59.203125 -41.703125 C 56.054688 -35.410156 53.265625 -29.523438 50.828125 -24.046875 C 47.992188 -16.535156 44.898438 -10.296875 41.546875 -5.328125 C 38.203125 -0.359375 33.078125 2.023438 26.171875 1.828125 C 25.367188 1.617188 24.609375 1.410156 23.890625 1.203125 C 23.179688 1.003906 22.320312 0.503906 21.3125 -0.296875 C 12.988281 -3.953125 9.640625 -12.78125 11.265625 -26.78125 C 12.078125 -33.476562 13.546875 -41.035156 15.671875 -49.453125 C 17.804688 -57.878906 20.703125 -66.960938 24.359375 -76.703125 C 29.835938 -91.316406 36.28125 -106.789062 43.6875 -123.125 C 51.09375 -139.46875 58.90625 -155.601562 67.125 -171.53125 C 75.34375 -187.457031 83.304688 -201.914062 91.015625 -214.90625 L 93.140625 -214.90625 L 184.171875 0 Z M 123.28125 -84.625 L 78.53125 -188.734375 C 69.195312 -170.867188 59.8125 -152.039062 50.375 -132.25 C 40.9375 -112.46875 32.972656 -93.75 26.484375 -76.09375 C 22.828125 -66.351562 19.929688 -57.320312 17.796875 -49 C 15.671875 -40.6875 14.203125 -33.28125 13.390625 -26.78125 C 13.191406 -20.488281 13.703125 -15.160156 14.921875 -10.796875 C 16.140625 -6.441406 18.570312 -3.65625 22.21875 -2.4375 C 23.238281 -2.226562 24 -2.019531 24.5 -1.8125 C 25.007812 -1.613281 25.671875 -1.3125 26.484375 -0.90625 C 32.566406 -0.5 37.128906 -2.628906 40.171875 -7.296875 C 43.222656 -11.972656 45.96875 -17.757812 48.40625 -24.65625 C 50.832031 -30.34375 53.671875 -36.378906 56.921875 -42.765625 C 60.171875 -49.160156 64.484375 -55.300781 69.859375 -61.1875 C 75.234375 -67.070312 82.179688 -72.144531 90.703125 -76.40625 C 99.234375 -80.664062 110.09375 -83.40625 123.28125 -84.625 Z M 123.28125 -84.625 "/></g></g></g></g></g><g transform="matrix(1, 0, 0, 1, 100, 613)"><g clip-path="url(#46b2865ae5)"><g fill="#1a1a1a" fill-opacity="1"><g transform="translate(20.00227, 21.787003)"><g><path d="M 2.03125 0 L 2.03125 -16.15625 L 9.515625 -16.15625 C 10.804688 -16.15625 11.878906 -15.878906 12.734375 -15.328125 C 13.585938 -14.785156 14.226562 -14.09375 14.65625 -13.25 C 15.082031 -12.40625 15.296875 -11.507812 15.296875 -10.5625 C 15.296875 -9.625 15.082031 -8.726562 14.65625 -7.875 C 14.226562 -7.019531 13.585938 -6.320312 12.734375 -5.78125 C 11.878906 -5.238281 10.804688 -4.96875 9.515625 -4.96875 L 4.609375 -4.96875 L 4.609375 0 Z M 4.609375 -7.34375 L 9.515625 -7.34375 C 10.210938 -7.34375 10.796875 -7.5 11.265625 -7.8125 C 11.742188 -8.125 12.097656 -8.523438 12.328125 -9.015625 C 12.566406 -9.515625 12.6875 -10.023438 12.6875 -10.546875 C 12.6875 -11.085938 12.566406 -11.601562 12.328125 -12.09375 C 12.097656 -12.582031 11.742188 -12.984375 11.265625 -13.296875 C 10.796875 -13.617188 10.210938 -13.78125 9.515625 -13.78125 L 4.609375 -13.78125 Z M 4.609375 -7.34375 "/></g></g></g><g fill="#1a1a1a" fill-opacity="1"><g transform="translate(49.633919, 21.787003)"><g><path d="M 2.03125 0 L 2.03125 -16.15625 L 9.546875 -16.15625 C 10.796875 -16.15625 11.84375 -15.90625 12.6875 -15.40625 C 13.539062 -14.90625 14.179688 -14.25 14.609375 -13.4375 C 15.035156 -12.632812 15.25 -11.78125 15.25 -10.875 C 15.25 -10.113281 15.109375 -9.375 14.828125 -8.65625 C 14.546875 -7.945312 14.082031 -7.335938 13.4375 -6.828125 C 12.789062 -6.316406 11.9375 -5.988281 10.875 -5.84375 L 15.6875 -0.46875 L 15.96875 0 L 12.953125 0 L 8.03125 -5.578125 L 4.609375 -5.578125 L 4.609375 0 Z M 4.609375 -7.9375 L 9.53125 -7.9375 C 10.59375 -7.9375 11.375 -8.222656 11.875 -8.796875 C 12.375 -9.378906 12.625 -10.054688 12.625 -10.828125 C 12.625 -11.316406 12.515625 -11.785156 12.296875 -12.234375 C 12.085938 -12.679688 11.753906 -13.050781 11.296875 -13.34375 C 10.835938 -13.632812 10.253906 -13.78125 9.546875 -13.78125 L 4.609375 -13.78125 Z M 4.609375 -7.9375 "/></g></g></g><g fill="#1a1a1a" fill-opacity="1"><g transform="translate(79.957637, 21.787003)"><g><path d="M 2.03125 0 L 2.03125 -16.15625 L 4.59375 -16.15625 L 4.59375 0 Z M 2.03125 0 "/></g></g></g><g fill="#1a1a1a" fill-opacity="1"><g transform="translate(100.269492, 21.787003)"><g><path d="M 0.203125 0 L 0.203125 -0.0625 L 5.890625 -8.1875 L 0.4375 -16.046875 L 0.4375 -16.15625 L 3.28125 -16.15625 L 7.546875 -9.90625 L 11.796875 -16.15625 L 14.625 -16.15625 L 14.625 -16.046875 L 9.15625 -8.1875 L 14.859375 -0.0625 L 14.859375 0 L 11.9375 0 L 7.546875 -6.390625 L 3.140625 0 Z M 0.203125 0 "/></g></g></g><g fill="#1a1a1a" fill-opacity="1"><g transform="translate(129.024538, 21.787003)"><g/></g></g><g fill="#1a1a1a" fill-opacity="1"><g transform="translate(148.459776, 21.787003)"><g><path d="M 2.03125 0 L 2.03125 -16.15625 L 8.140625 -16.15625 C 9.546875 -16.15625 10.753906 -15.925781 11.765625 -15.46875 C 12.785156 -15.019531 13.625 -14.40625 14.28125 -13.625 C 14.945312 -12.851562 15.441406 -11.984375 15.765625 -11.015625 C 16.085938 -10.054688 16.25 -9.066406 16.25 -8.046875 C 16.25 -7.035156 16.085938 -6.050781 15.765625 -5.09375 C 15.453125 -4.144531 14.960938 -3.285156 14.296875 -2.515625 C 13.640625 -1.742188 12.800781 -1.128906 11.78125 -0.671875 C 10.757812 -0.222656 9.546875 0 8.140625 0 Z M 4.59375 -2.5 L 8.140625 -2.5 C 9.429688 -2.5 10.484375 -2.769531 11.296875 -3.3125 C 12.117188 -3.851562 12.722656 -4.550781 13.109375 -5.40625 C 13.492188 -6.257812 13.6875 -7.148438 13.6875 -8.078125 C 13.6875 -8.765625 13.578125 -9.4375 13.359375 -10.09375 C 13.148438 -10.757812 12.820312 -11.363281 12.375 -11.90625 C 11.925781 -12.445312 11.347656 -12.878906 10.640625 -13.203125 C 9.941406 -13.523438 9.109375 -13.6875 8.140625 -13.6875 L 4.59375 -13.6875 Z M 4.59375 -2.5 "/></g></g></g><g fill="#1a1a1a" fill-opacity="1"><g transform="translate(179.452492, 21.787003)"><g><path d="M 2.03125 0 L 2.03125 -16.15625 L 13.890625 -16.15625 L 13.890625 -13.640625 L 4.609375 -13.640625 L 4.609375 -9.28125 L 13.53125 -9.28125 L 13.53125 -6.875 L 4.609375 -6.875 L 4.609375 -2.53125 L 13.96875 -2.53125 L 13.96875 0 Z M 2.03125 0 "/></g></g></g><g fill="#1a1a1a" fill-opacity="1"><g transform="translate(208.392087, 21.787003)"><g><path d="M 7.65625 0.328125 C 6.101562 0.328125 4.742188 0.0546875 3.578125 -0.484375 C 2.410156 -1.035156 1.457031 -1.988281 0.71875 -3.34375 L 2.65625 -4.640625 C 3.238281 -3.648438 3.988281 -2.957031 4.90625 -2.5625 C 5.820312 -2.175781 6.75 -1.984375 7.6875 -1.984375 C 8.332031 -1.984375 8.96875 -2.0625 9.59375 -2.21875 C 10.226562 -2.382812 10.75 -2.660156 11.15625 -3.046875 C 11.5625 -3.441406 11.765625 -3.976562 11.765625 -4.65625 C 11.765625 -5.21875 11.578125 -5.671875 11.203125 -6.015625 C 10.835938 -6.359375 10.34375 -6.625 9.71875 -6.8125 C 9.101562 -7.007812 8.410156 -7.160156 7.640625 -7.265625 C 6.835938 -7.390625 6.0625 -7.539062 5.3125 -7.71875 C 4.570312 -7.894531 3.90625 -8.148438 3.3125 -8.484375 C 2.71875 -8.828125 2.25 -9.28125 1.90625 -9.84375 C 1.5625 -10.40625 1.390625 -11.117188 1.390625 -11.984375 C 1.390625 -12.742188 1.570312 -13.40625 1.9375 -13.96875 C 2.3125 -14.53125 2.796875 -14.992188 3.390625 -15.359375 C 3.992188 -15.722656 4.664062 -15.992188 5.40625 -16.171875 C 6.144531 -16.347656 6.878906 -16.4375 7.609375 -16.4375 C 8.398438 -16.4375 9.164062 -16.359375 9.90625 -16.203125 C 10.65625 -16.046875 11.351562 -15.769531 12 -15.375 C 12.644531 -14.988281 13.191406 -14.429688 13.640625 -13.703125 L 11.671875 -12.390625 C 11.285156 -12.960938 10.734375 -13.410156 10.015625 -13.734375 C 9.304688 -14.054688 8.53125 -14.21875 7.6875 -14.21875 C 6.601562 -14.21875 5.707031 -14.007812 5 -13.59375 C 4.300781 -13.175781 3.953125 -12.625 3.953125 -11.9375 C 3.953125 -11.40625 4.128906 -10.988281 4.484375 -10.6875 C 4.847656 -10.394531 5.328125 -10.171875 5.921875 -10.015625 C 6.515625 -9.859375 7.164062 -9.726562 7.875 -9.625 C 8.695312 -9.5 9.5 -9.335938 10.28125 -9.140625 C 11.0625 -8.941406 11.753906 -8.660156 12.359375 -8.296875 C 12.960938 -7.929688 13.445312 -7.457031 13.8125 -6.875 C 14.175781 -6.289062 14.359375 -5.550781 14.359375 -4.65625 C 14.359375 -3.75 14.164062 -2.976562 13.78125 -2.34375 C 13.40625 -1.71875 12.898438 -1.207031 12.265625 -0.8125 C 11.628906 -0.425781 10.914062 -0.140625 10.125 0.046875 C 9.332031 0.234375 8.507812 0.328125 7.65625 0.328125 Z M 7.65625 0.328125 "/></g></g></g><g fill="#1a1a1a" fill-opacity="1"><g transform="translate(237.30861, 21.787003)"><g/></g></g><g fill="#1a1a1a" fill-opacity="1"><g transform="translate(256.743848, 21.787003)"><g><path d="M 0.203125 0 L 7.453125 -16.15625 L 10.265625 -16.15625 L 17.515625 0 L 14.765625 0 L 13.21875 -3.390625 L 4.484375 -3.390625 L 2.953125 0 Z M 5.453125 -5.75 L 12.28125 -5.75 L 8.859375 -13.4375 Z M 5.453125 -5.75 "/></g></g></g><g fill="#1a1a1a" fill-opacity="1"><g transform="translate(288.151818, 21.787003)"><g><path d="M 2.03125 0 L 2.03125 -16.15625 L 9.546875 -16.15625 C 10.796875 -16.15625 11.84375 -15.90625 12.6875 -15.40625 C 13.539062 -14.90625 14.179688 -14.25 14.609375 -13.4375 C 15.035156 -12.632812 15.25 -11.78125 15.25 -10.875 C 15.25 -10.113281 15.109375 -9.375 14.828125 -8.65625 C 14.546875 -7.945312 14.082031 -7.335938 13.4375 -6.828125 C 12.789062 -6.316406 11.9375 -5.988281 10.875 -5.84375 L 15.6875 -0.46875 L 15.96875 0 L 12.953125 0 L 8.03125 -5.578125 L 4.609375 -5.578125 L 4.609375 0 Z M 4.609375 -7.9375 L 9.53125 -7.9375 C 10.59375 -7.9375 11.375 -8.222656 11.875 -8.796875 C 12.375 -9.378906 12.625 -10.054688 12.625 -10.828125 C 12.625 -11.316406 12.515625 -11.785156 12.296875 -12.234375 C 12.085938 -12.679688 11.753906 -13.050781 11.296875 -13.34375 C 10.835938 -13.632812 10.253906 -13.78125 9.546875 -13.78125 L 4.609375 -13.78125 Z M 4.609375 -7.9375 "/></g></g></g><g fill="#1a1a1a" fill-opacity="1"><g transform="translate(318.475506, 21.787003)"><g><path d="M 5.703125 0 L 5.703125 -13.828125 L 0.390625 -13.828125 L 0.390625 -16.15625 L 13.59375 -16.15625 L 13.59375 -13.828125 L 8.3125 -13.828125 L 8.3125 0 Z M 5.703125 0 "/></g></g></g><g fill="#1a1a1a" fill-opacity="1"><g transform="translate(346.146329, 21.787003)"><g><path d="M 7.65625 0.328125 C 6.101562 0.328125 4.742188 0.0546875 3.578125 -0.484375 C 2.410156 -1.035156 1.457031 -1.988281 0.71875 -3.34375 L 2.65625 -4.640625 C 3.238281 -3.648438 3.988281 -2.957031 4.90625 -2.5625 C 5.820312 -2.175781 6.75 -1.984375 7.6875 -1.984375 C 8.332031 -1.984375 8.96875 -2.0625 9.59375 -2.21875 C 10.226562 -2.382812 10.75 -2.660156 11.15625 -3.046875 C 11.5625 -3.441406 11.765625 -3.976562 11.765625 -4.65625 C 11.765625 -5.21875 11.578125 -5.671875 11.203125 -6.015625 C 10.835938 -6.359375 10.34375 -6.625 9.71875 -6.8125 C 9.101562 -7.007812 8.410156 -7.160156 7.640625 -7.265625 C 6.835938 -7.390625 6.0625 -7.539062 5.3125 -7.71875 C 4.570312 -7.894531 3.90625 -8.148438 3.3125 -8.484375 C 2.71875 -8.828125 2.25 -9.28125 1.90625 -9.84375 C 1.5625 -10.40625 1.390625 -11.117188 1.390625 -11.984375 C 1.390625 -12.742188 1.570312 -13.40625 1.9375 -13.96875 C 2.3125 -14.53125 2.796875 -14.992188 3.390625 -15.359375 C 3.992188 -15.722656 4.664062 -15.992188 5.40625 -16.171875 C 6.144531 -16.347656 6.878906 -16.4375 7.609375 -16.4375 C 8.398438 -16.4375 9.164062 -16.359375 9.90625 -16.203125 C 10.65625 -16.046875 11.351562 -15.769531 12 -15.375 C 12.644531 -14.988281 13.191406 -14.429688 13.640625 -13.703125 L 11.671875 -12.390625 C 11.285156 -12.960938 10.734375 -13.410156 10.015625 -13.734375 C 9.304688 -14.054688 8.53125 -14.21875 7.6875 -14.21875 C 6.601562 -14.21875 5.707031 -14.007812 5 -13.59375 C 4.300781 -13.175781 3.953125 -12.625 3.953125 -11.9375 C 3.953125 -11.40625 4.128906 -10.988281 4.484375 -10.6875 C 4.847656 -10.394531 5.328125 -10.171875 5.921875 -10.015625 C 6.515625 -9.859375 7.164062 -9.726562 7.875 -9.625 C 8.695312 -9.5 9.5 -9.335938 10.28125 -9.140625 C 11.0625 -8.941406 11.753906 -8.660156 12.359375 -8.296875 C 12.960938 -7.929688 13.445312 -7.457031 13.8125 -6.875 C 14.175781 -6.289062 14.359375 -5.550781 14.359375 -4.65625 C 14.359375 -3.75 14.164062 -2.976562 13.78125 -2.34375 C 13.40625 -1.71875 12.898438 -1.207031 12.265625 -0.8125 C 11.628906 -0.425781 10.914062 -0.140625 10.125 0.046875 C 9.332031 0.234375 8.507812 0.328125 7.65625 0.328125 Z M 7.65625 0.328125 "/></g></g></g><g fill="#1a1a1a" fill-opacity="1"><g transform="translate(375.069462, 21.787003)"><g/></g></g><g fill="#1a1a1a" fill-opacity="1"><g transform="translate(0.77578, 53.485946)"><g><path d="M 7.359375 0.25 C 6.253906 0.25 5.234375 0.0625 4.296875 -0.3125 C 3.367188 -0.6875 2.625 -1.242188 2.0625 -1.984375 C 1.5 -2.722656 1.21875 -3.644531 1.21875 -4.75 C 1.21875 -5.257812 1.332031 -5.75 1.5625 -6.21875 C 1.800781 -6.6875 2.125 -7.101562 2.53125 -7.46875 C 2.9375 -7.84375 3.394531 -8.109375 3.90625 -8.265625 C 3.175781 -8.554688 2.613281 -9.015625 2.21875 -9.640625 C 1.832031 -10.273438 1.640625 -10.945312 1.640625 -11.65625 C 1.640625 -12.726562 1.921875 -13.609375 2.484375 -14.296875 C 3.054688 -14.992188 3.796875 -15.507812 4.703125 -15.84375 C 5.609375 -16.1875 6.570312 -16.359375 7.59375 -16.359375 C 8.269531 -16.359375 8.945312 -16.289062 9.625 -16.15625 C 10.300781 -16.019531 10.914062 -15.78125 11.46875 -15.4375 C 12.019531 -15.101562 12.460938 -14.648438 12.796875 -14.078125 C 13.140625 -13.503906 13.3125 -12.789062 13.3125 -11.9375 L 10.890625 -11.9375 C 10.890625 -12.519531 10.734375 -12.972656 10.421875 -13.296875 C 10.109375 -13.617188 9.695312 -13.84375 9.1875 -13.96875 C 8.675781 -14.101562 8.125 -14.171875 7.53125 -14.171875 C 6.675781 -14.171875 6.003906 -14.039062 5.515625 -13.78125 C 5.023438 -13.53125 4.675781 -13.210938 4.46875 -12.828125 C 4.257812 -12.441406 4.15625 -12.050781 4.15625 -11.65625 C 4.15625 -11.195312 4.265625 -10.8125 4.484375 -10.5 C 4.710938 -10.1875 5.003906 -9.941406 5.359375 -9.765625 C 5.710938 -9.597656 6.078125 -9.472656 6.453125 -9.390625 C 6.835938 -9.316406 7.195312 -9.28125 7.53125 -9.28125 L 14.90625 -9.28125 L 14.90625 -7.21875 L 13.546875 -7.21875 L 13.546875 -4.59375 C 13.546875 -4.007812 13.664062 -3.503906 13.90625 -3.078125 C 14.144531 -2.660156 14.554688 -2.453125 15.140625 -2.453125 L 15.140625 0.046875 C 14.742188 0.0546875 14.34375 0.0078125 13.9375 -0.09375 C 13.539062 -0.195312 13.1875 -0.40625 12.875 -0.71875 C 12.570312 -1.039062 12.34375 -1.484375 12.1875 -2.046875 C 11.695312 -1.285156 11.035156 -0.710938 10.203125 -0.328125 C 9.367188 0.0546875 8.421875 0.25 7.359375 0.25 Z M 7.484375 -2.09375 C 7.804688 -2.09375 8.171875 -2.132812 8.578125 -2.21875 C 8.992188 -2.3125 9.394531 -2.453125 9.78125 -2.640625 C 10.164062 -2.835938 10.484375 -3.09375 10.734375 -3.40625 C 10.992188 -3.71875 11.125 -4.113281 11.125 -4.59375 L 11.125 -7.21875 L 7.390625 -7.21875 C 6.566406 -7.21875 5.882812 -7.09375 5.34375 -6.84375 C 4.8125 -6.59375 4.414062 -6.273438 4.15625 -5.890625 C 3.894531 -5.503906 3.765625 -5.117188 3.765625 -4.734375 C 3.765625 -3.835938 4.117188 -3.171875 4.828125 -2.734375 C 5.546875 -2.304688 6.429688 -2.09375 7.484375 -2.09375 Z M 7.484375 -2.09375 "/></g></g></g><g fill="#1a1a1a" fill-opacity="1"><g transform="translate(30.684259, 53.485946)"><g/></g></g><g fill="#1a1a1a" fill-opacity="1"><g transform="translate(50.119497, 53.485946)"><g><path d="M 2.03125 0 L 2.03125 -16.15625 L 8.140625 -16.15625 C 9.546875 -16.15625 10.753906 -15.925781 11.765625 -15.46875 C 12.785156 -15.019531 13.625 -14.40625 14.28125 -13.625 C 14.945312 -12.851562 15.441406 -11.984375 15.765625 -11.015625 C 16.085938 -10.054688 16.25 -9.066406 16.25 -8.046875 C 16.25 -7.035156 16.085938 -6.050781 15.765625 -5.09375 C 15.453125 -4.144531 14.960938 -3.285156 14.296875 -2.515625 C 13.640625 -1.742188 12.800781 -1.128906 11.78125 -0.671875 C 10.757812 -0.222656 9.546875 0 8.140625 0 Z M 4.59375 -2.5 L 8.140625 -2.5 C 9.429688 -2.5 10.484375 -2.769531 11.296875 -3.3125 C 12.117188 -3.851562 12.722656 -4.550781 13.109375 -5.40625 C 13.492188 -6.257812 13.6875 -7.148438 13.6875 -8.078125 C 13.6875 -8.765625 13.578125 -9.4375 13.359375 -10.09375 C 13.148438 -10.757812 12.820312 -11.363281 12.375 -11.90625 C 11.925781 -12.445312 11.347656 -12.878906 10.640625 -13.203125 C 9.941406 -13.523438 9.109375 -13.6875 8.140625 -13.6875 L 4.59375 -13.6875 Z M 4.59375 -2.5 "/></g></g></g><g fill="#1a1a1a" fill-opacity="1"><g transform="translate(81.112213, 53.485946)"><g><path d="M 2.03125 0 L 2.03125 -16.15625 L 13.890625 -16.15625 L 13.890625 -13.640625 L 4.609375 -13.640625 L 4.609375 -9.28125 L 13.53125 -9.28125 L 13.53125 -6.875 L 4.609375 -6.875 L 4.609375 -2.53125 L 13.96875 -2.53125 L 13.96875 0 Z M 2.03125 0 "/></g></g></g><g fill="#1a1a1a" fill-opacity="1"><g transform="translate(110.051808, 53.485946)"><g/></g></g><g fill="#1a1a1a" fill-opacity="1"><g transform="translate(129.487046, 53.485946)"><g><path d="M 2.03125 0 L 2.03125 -16.15625 L 4.609375 -16.15625 L 4.609375 -2.40625 L 13.125 -2.40625 L 13.125 0 Z M 2.03125 0 "/></g></g></g><g fill="#1a1a1a" fill-opacity="1"><g transform="translate(156.719546, 53.485946)"><g><path d="M 0.203125 0 L 7.453125 -16.15625 L 10.265625 -16.15625 L 17.515625 0 L 14.765625 0 L 13.21875 -3.390625 L 4.484375 -3.390625 L 2.953125 0 Z M 5.453125 -5.75 L 12.28125 -5.75 L 8.859375 -13.4375 Z M 5.453125 -5.75 "/></g></g></g><g fill="#1a1a1a" fill-opacity="1"><g transform="translate(188.1275, 53.485946)"><g/></g></g><g fill="#1a1a1a" fill-opacity="1"><g transform="translate(207.562738, 53.485946)"><g><path d="M 9.546875 0.328125 C 8.085938 0.328125 6.820312 0.0976562 5.75 -0.359375 C 4.6875 -0.828125 3.800781 -1.445312 3.09375 -2.21875 C 2.394531 -3 1.875 -3.882812 1.53125 -4.875 C 1.195312 -5.875 1.03125 -6.90625 1.03125 -7.96875 C 1.03125 -9.019531 1.203125 -10.050781 1.546875 -11.0625 C 1.898438 -12.070312 2.425781 -12.976562 3.125 -13.78125 C 3.820312 -14.59375 4.707031 -15.238281 5.78125 -15.71875 C 6.851562 -16.195312 8.109375 -16.4375 9.546875 -16.4375 C 10.640625 -16.4375 11.691406 -16.234375 12.703125 -15.828125 C 13.710938 -15.429688 14.632812 -14.816406 15.46875 -13.984375 L 13.734375 -12.328125 C 13.148438 -12.890625 12.492188 -13.304688 11.765625 -13.578125 C 11.046875 -13.847656 10.304688 -13.984375 9.546875 -13.984375 C 8.523438 -13.984375 7.632812 -13.8125 6.875 -13.46875 C 6.125 -13.132812 5.503906 -12.675781 5.015625 -12.09375 C 4.535156 -11.519531 4.175781 -10.875 3.9375 -10.15625 C 3.707031 -9.445312 3.59375 -8.722656 3.59375 -7.984375 C 3.59375 -7.242188 3.707031 -6.523438 3.9375 -5.828125 C 4.175781 -5.128906 4.535156 -4.5 5.015625 -3.9375 C 5.503906 -3.375 6.125 -2.925781 6.875 -2.59375 C 7.632812 -2.257812 8.523438 -2.09375 9.546875 -2.09375 C 10.304688 -2.09375 11.070312 -2.242188 11.84375 -2.546875 C 12.613281 -2.847656 13.28125 -3.285156 13.84375 -3.859375 L 15.625 -2.078125 C 14.789062 -1.242188 13.851562 -0.632812 12.8125 -0.25 C 11.78125 0.132812 10.691406 0.328125 9.546875 0.328125 Z M 9.546875 0.328125 "/></g></g></g><g fill="#1a1a1a" fill-opacity="1"><g transform="translate(237.471217, 53.485946)"><g><path d="M 8.65625 0.328125 C 7.40625 0.328125 6.257812 0.0625 5.21875 -0.46875 C 4.1875 -1 3.363281 -1.785156 2.75 -2.828125 C 2.132812 -3.867188 1.828125 -5.148438 1.828125 -6.671875 L 1.828125 -16.15625 L 4.390625 -16.15625 L 4.390625 -6.671875 C 4.390625 -5.179688 4.800781 -4.035156 5.625 -3.234375 C 6.445312 -2.441406 7.488281 -2.046875 8.75 -2.046875 C 9.976562 -2.046875 10.988281 -2.441406 11.78125 -3.234375 C 12.570312 -4.035156 12.96875 -5.179688 12.96875 -6.671875 L 12.96875 -16.15625 L 15.53125 -16.15625 L 15.53125 -6.671875 C 15.53125 -5.085938 15.21875 -3.78125 14.59375 -2.75 C 13.96875 -1.71875 13.132812 -0.945312 12.09375 -0.4375 C 11.050781 0.0703125 9.90625 0.328125 8.65625 0.328125 Z M 8.65625 0.328125 "/></g></g></g><g fill="#1a1a1a" fill-opacity="1"><g transform="translate(268.510059, 53.485946)"><g><path d="M 2.03125 0 L 2.03125 -16.15625 L 4.609375 -16.15625 L 4.609375 -2.40625 L 13.125 -2.40625 L 13.125 0 Z M 2.03125 0 "/></g></g></g><g fill="#1a1a1a" fill-opacity="1"><g transform="translate(295.742574, 53.485946)"><g><path d="M 5.703125 0 L 5.703125 -13.828125 L 0.390625 -13.828125 L 0.390625 -16.15625 L 13.59375 -16.15625 L 13.59375 -13.828125 L 8.3125 -13.828125 L 8.3125 0 Z M 5.703125 0 "/></g></g></g><g fill="#1a1a1a" fill-opacity="1"><g transform="translate(323.413397, 53.485946)"><g><path d="M 8.65625 0.328125 C 7.40625 0.328125 6.257812 0.0625 5.21875 -0.46875 C 4.1875 -1 3.363281 -1.785156 2.75 -2.828125 C 2.132812 -3.867188 1.828125 -5.148438 1.828125 -6.671875 L 1.828125 -16.15625 L 4.390625 -16.15625 L 4.390625 -6.671875 C 4.390625 -5.179688 4.800781 -4.035156 5.625 -3.234375 C 6.445312 -2.441406 7.488281 -2.046875 8.75 -2.046875 C 9.976562 -2.046875 10.988281 -2.441406 11.78125 -3.234375 C 12.570312 -4.035156 12.96875 -5.179688 12.96875 -6.671875 L 12.96875 -16.15625 L 15.53125 -16.15625 L 15.53125 -6.671875 C 15.53125 -5.085938 15.21875 -3.78125 14.59375 -2.75 C 13.96875 -1.71875 13.132812 -0.945312 12.09375 -0.4375 C 11.050781 0.0703125 9.90625 0.328125 8.65625 0.328125 Z M 8.65625 0.328125 "/></g></g></g><g fill="#1a1a1a" fill-opacity="1"><g transform="translate(354.452239, 53.485946)"><g><path d="M 2.03125 0 L 2.03125 -16.15625 L 9.546875 -16.15625 C 10.796875 -16.15625 11.84375 -15.90625 12.6875 -15.40625 C 13.539062 -14.90625 14.179688 -14.25 14.609375 -13.4375 C 15.035156 -12.632812 15.25 -11.78125 15.25 -10.875 C 15.25 -10.113281 15.109375 -9.375 14.828125 -8.65625 C 14.546875 -7.945312 14.082031 -7.335938 13.4375 -6.828125 C 12.789062 -6.316406 11.9375 -5.988281 10.875 -5.84375 L 15.6875 -0.46875 L 15.96875 0 L 12.953125 0 L 8.03125 -5.578125 L 4.609375 -5.578125 L 4.609375 0 Z M 4.609375 -7.9375 L 9.53125 -7.9375 C 10.59375 -7.9375 11.375 -8.222656 11.875 -8.796875 C 12.375 -9.378906 12.625 -10.054688 12.625 -10.828125 C 12.625 -11.316406 12.515625 -11.785156 12.296875 -12.234375 C 12.085938 -12.679688 11.753906 -13.050781 11.296875 -13.34375 C 10.835938 -13.632812 10.253906 -13.78125 9.546875 -13.78125 L 4.609375 -13.78125 Z M 4.609375 -7.9375 "/></g></g></g><g fill="#1a1a1a" fill-opacity="1"><g transform="translate(384.775957, 53.485946)"><g><path d="M 2.03125 0 L 2.03125 -16.15625 L 13.890625 -16.15625 L 13.890625 -13.640625 L 4.609375 -13.640625 L 4.609375 -9.28125 L 13.53125 -9.28125 L 13.53125 -6.875 L 4.609375 -6.875 L 4.609375 -2.53125 L 13.96875 -2.53125 L 13.96875 0 Z M 2.03125 0 "/></g></g></g></g></g><g transform="matrix(1, 0, 0, 1, 207, 364)"><g clip-path="url(#5c84612f68)"><g fill="#1a1a1a" fill-opacity="1"><g transform="translate(1.129563, 221.707164)"><g><path d="M 88.328125 -202.28125 C 75.765625 -198.75 65.457031 -192.660156 57.40625 -184.015625 C 49.363281 -175.378906 43.328125 -165.269531 39.296875 -153.6875 C 35.273438 -142.113281 33.117188 -130.046875 32.828125 -117.484375 C 32.535156 -104.921875 33.765625 -93.046875 36.515625 -81.859375 C 39.648438 -70.671875 44.503906 -59.726562 51.078125 -49.03125 C 57.660156 -38.332031 65.5625 -28.957031 74.78125 -20.90625 C 84.007812 -12.851562 94.265625 -7.160156 105.546875 -3.828125 C 116.835938 -0.492188 128.765625 -0.492188 141.328125 -3.828125 C 152.316406 -6.773438 161.492188 -11.734375 168.859375 -18.703125 C 176.222656 -25.671875 182.0625 -33.910156 186.375 -43.421875 C 190.695312 -52.941406 193.546875 -63.003906 194.921875 -73.609375 L 194.921875 -36.21875 C 181.566406 -19.332031 163.898438 -8.046875 141.921875 -2.359375 C 127.785156 1.765625 113.945312 2.894531 100.40625 1.03125 C 86.863281 -0.832031 74.300781 -5.195312 62.71875 -12.0625 C 51.132812 -18.9375 41.070312 -27.820312 32.53125 -38.71875 C 24 -49.613281 17.769531 -62.03125 13.84375 -75.96875 C 10.300781 -89.90625 9.507812 -103.691406 11.46875 -117.328125 C 13.4375 -130.972656 17.804688 -143.734375 24.578125 -155.609375 C 31.359375 -167.484375 40.097656 -177.640625 50.796875 -186.078125 C 61.492188 -194.523438 73.8125 -200.613281 87.75 -204.34375 C 100.894531 -207.875 112.617188 -209.394531 122.921875 -208.90625 C 133.234375 -208.414062 142.21875 -206.695312 149.875 -203.75 C 157.53125 -200.800781 163.90625 -197.507812 169 -193.875 C 174.101562 -190.25 177.878906 -187.0625 180.328125 -184.3125 C 182.785156 -181.570312 184.015625 -180.203125 184.015625 -180.203125 L 184.015625 -149.578125 C 184.015625 -149.578125 183.128906 -151.242188 181.359375 -154.578125 C 179.597656 -157.910156 176.953125 -162.078125 173.421875 -167.078125 C 169.890625 -172.085938 165.472656 -177.242188 160.171875 -182.546875 C 154.867188 -187.847656 148.6875 -192.5625 141.625 -196.6875 C 134.5625 -200.8125 126.613281 -203.507812 117.78125 -204.78125 C 108.945312 -206.050781 99.128906 -205.21875 88.328125 -202.28125 Z M 88.328125 -202.28125 "/></g></g></g></g></g></svg>